/* XPM */
static char *f884c2a9a29c4a78c714fed1e91c52c54kdIRtEAQJWDAbhs[] = {
/* columns rows colors chars-per-pixel */
"32 32 107 2 ",
"   c #4F3F47",
".  c #594448",
"X  c #6D4D4B",
"o  c #78514C",
"O  c #6E4D4B",
"+  c #504047",
"@  c #514047",
"#  c #79524C",
"$  c #594348",
"%  c #614749",
"&  c #704E4B",
"*  c #77514C",
"=  c #5A4448",
"-  c #584348",
";  c #524147",
":  c #534147",
">  c #714F4C",
",  c #65494B",
"<  c #5B454A",
"1  c #544148",
"2  c #75504C",
"3  c #66494A",
"4  c #574348",
"5  c #503F47",
"6  c #664A4A",
"7  c #79524E",
"8  c #7D5552",
"9  c #735050",
"0  c #5C454A",
"q  c #78524C",
"w  c #724F4C",
"e  c #664A4B",
"r  c #544248",
"t  c #624749",
"y  c #714E4B",
"u  c #76514C",
"i  c #7E544F",
"p  c #8A5B55",
"a  c #7F5654",
"s  c #60474B",
"d  c #4F3F46",
"f  c #7A534E",
"g  c #7E5552",
"h  c #745150",
"j  c #674A4A",
"k  c #76504C",
"l  c #7D544F",
"z  c #7F5653",
"x  c #805754",
"c  c #6F4D4B",
"v  c #895B55",
"b  c #7E5653",
"n  c #5F474B",
"m  c #7B534E",
"M  c #825751",
"N  c #8B5C56",
"B  c #835852",
"V  c #8E5E57",
"C  c #6F4D48",
"Z  c #734F4A",
"A  c #7A534D",
"S  c #815751",
"D  c #8A5C56",
"F  c #8C5C56",
"G  c #855953",
"H  c #75514E",
"J  c #5C4549",
"K  c #584347",
"L  c #684A48",
"P  c #744F4A",
"I  c #74504E",
"U  c #5F4441",
"Y  c #6A4A46",
"T  c #7F5550",
"R  c #8E5E58",
"E  c #704D49",
"W  c #604544",
"Q  c #554246",
"!  c #544145",
"~  c #5C4342",
"^  c #6B4A46",
"/  c #7F5650",
"(  c #55403F",
")  c #604644",
"_  c #76514D",
"`  c #544041",
"'  c #524045",
"]  c #614644",
"[  c #77514D",
"{  c #574244",
"}  c #674844",
"|  c #664844",
" . c #514045",
".. c #514046",
"X. c #554042",
"o. c #56403F",
"O. c #564040",
"+. c #554041",
"@. c #554040",
"#. c #524044",
"$. c #513F44",
"%. c #514044",
"&. c #534148",
"*. c #5B4448",
"=. c #7A524C",
"-. c #684A4A",
";. c white",
/* pixels */
"  . X o o o o O .     + @ @ @ @ @ @ @ @ +     . O # # X $   + @ ",
". % & o * * o & % . = - ; + @ @ @ @ + : - = . % & o o > , < 1 @ ",
"X & 2 * * * * 2 & O O 3 4   + @ @ + 5 4 6 O O & 2 * * 7 8 9 0 5 ",
"o o * * * * * * o q q w e < r @ @ : 4 t y # q o * * u i p a s d ",
"o * * * * * * * * * * f g h 0 5 5 - j y k o o * * * u l p z s d ",
"* * * * * * * * * * u l p x s     = c # o * * * * * u l v b n   ",
"* * * * * * * * * * k l p x s     = O q o * * * * * k l v b n   ",
"* * * * * * * * * o m M N x s     = O q * * * * * o m M N z s d ",
"o * * u u u u u k m B N V x s     = O q * u u u k m B N V z s d ",
"C Z A l l l l l l S D F G H J   5 K L P A l l l l S D F G I J 5 ",
"U Y T p p v v v v N R G E W Q + + ! ~ ^ / p p v v N R G E W Q + ",
"( ) _ M M S S S S M M _ W ` ' @ @ ' ` ] [ M M S S M M _ W ` ' @ ",
"' { ] } | | | | | | | ] {  ...@ @ ..' { ] } | | | | | ] {  ...@ ",
"@ ' X.o.o.O.O.O.O.o.o.+.' @ @ @ @ @ @ ' ` ( ( @.O.o.o.+.' @ @ @ ",
"@ @ ' #.#.#.#.#.#.#.#.' ..@ @ @ @ @ @ .. .$.$.%.#.#.#.' ..@ @ @ ",
"@ @ @ @ @ @ + + + + + + @ @ @ @ @ @ @ : - = = - &.@ @ @ @ @ @ @ ",
"@ @ @ @ @ @ + + + + + + @ @ @ @ @ @ + - j c c j - + + @ @ @ @ @ ",
"@ @ @ @ + : - = = = = - : @ @ @ @ + + *.c =.=.c *.+ + @ @ @ @ @ ",
"@ @ @ + 5 4 j c O O c j - + @ @ @ + + *.c =.=.c *.+ + @ @ @ @ @ ",
"@ @ @ : 4 t y # q q # c = + + @ @ @ + - j c c j - + @ @ @ @ @ @ ",
"@ @ + - j y k o o q q O = + + @ @ @ @ : - *.*.- : @ @ @ @ @ @ @ ",
"@ + + *.c # o * * o q O = + + @ @ @ @ + + + + + + + + @ @ @ @ @ ",
"@ + + *.c # o * * o # c = + + @ @ @ + + + + + + + + + + @ @ @ @ ",
"@ @ + - j y k o o k y j - + @ @ @ : $ $ : @ @ : - *.*.- : @ @ @ ",
"@ @ @ : 4 t y # # y t 4 : @ @ @ + $ -.-.$ 5 + - j c c j - + @ @ ",
"@ @ @ + 5 4 j c c j 4 5 + @ @ @ + $ -.-.$ 5 5 *.c =.=.c *.+ + @ ",
"@ @ @ @ + : - *.*.- : + @ @ @ @ @ : $ $ : + + *.c =.=.c *.+ + @ ",
"@ @ @ @ @ @ + + + + @ @ @ @ @ @ @ @ + + @ @ + - j c c j - + @ @ ",
"@ @ @ @ @ @ @ + + @ @ @ @ @ @ @ @ @ @ @ @ @ @ : - *.*.- : @ @ @ ",
"@ @ @ @ @ @ @ @ @ @ @ @ @ @ @ @ @ @ @ @ @ @ @ @ + + + + @ @ @ @ ",
"@ @ @ @ @ @ @ @ @ @ @ @ @ @ @ @ @ @ @ @ @ @ @ @ @ + + @ @ @ @ @ ",
"@ @ @ @ @ @ @ @ @ @ @ @ @ @ @ @ @ @ @ @ @ @ @ @ @ @ @ @ @ @ @ @ "
};
