/* XPM */
static char *_72ccd91aae64d5cec5f64d4263e9358r8byEgQEpqpgN1p8[] = {
/* columns rows colors chars-per-pixel */
"32 32 140 2 ",
"   c None",
".  c #020204",
"X  c #060708",
"o  c #0C0A0C",
"O  c #0B0304",
"+  c #10080A",
"@  c #0D0D10",
"#  c #100E10",
"$  c #141416",
"%  c #1B1A1D",
"&  c #230B0C",
"*  c #2B0D0E",
"=  c #250E10",
"-  c #2B0F10",
";  c #2B1314",
":  c #241C1F",
">  c #341111",
",  c #331D1F",
"<  c #1D1D21",
"1  c #231E21",
"2  c #212226",
"3  c #252529",
"4  c #272A2E",
"5  c #282B2F",
"6  c #3B2224",
"7  c #292D31",
"8  c #252C30",
"9  c #302F31",
"0  c #2E3032",
"q  c #333336",
"w  c #3A3B3D",
"e  c #561A19",
"r  c #6A1F1F",
"t  c #661C1D",
"y  c #651F20",
"u  c #6B1F20",
"i  c #472629",
"p  c #40393A",
"a  c #6E2425",
"s  c #742222",
"d  c #7C2424",
"f  c #782F33",
"g  c #7C3335",
"h  c #65493B",
"j  c #3D3C40",
"k  c #3E4248",
"l  c #424243",
"z  c #42444A",
"x  c #4C474D",
"c  c #4E4D53",
"v  c #524D52",
"b  c #545057",
"n  c #575259",
"m  c #58545B",
"M  c #6A4E54",
"N  c #6C5157",
"B  c #6F545A",
"V  c #7B575D",
"C  c #5F6A70",
"Z  c #636269",
"A  c #6E6E6F",
"S  c #68656C",
"D  c #6C6B72",
"F  c #706D75",
"G  c #727179",
"H  c #842626",
"J  c #882727",
"K  c #8A2829",
"L  c #9F2F2F",
"P  c #952A2A",
"I  c #923030",
"U  c #AE3232",
"Y  c #B23333",
"T  c #B45B2D",
"R  c #C56B3F",
"E  c #9F3D40",
"W  c #A03D40",
"Q  c #9C4A4D",
"!  c #954E4F",
"~  c #9D5558",
"^  c #A64243",
"/  c #AE4E41",
"(  c #BF6253",
")  c #915E64",
"_  c #8B686F",
"`  c #906D6E",
"'  c #99776F",
"]  c #8D6A71",
"[  c #916D72",
"{  c #9B7870",
"}  c #BC7475",
"|  c #C36455",
" . c #C66566",
".. c #7C7780",
"X. c #737C84",
"o. c #787981",
"O. c #827C85",
"+. c #917A82",
"@. c #76848C",
"#. c #7A848D",
"$. c #84828B",
"%. c #89858E",
"&. c #808E97",
"*. c #8B8C96",
"=. c #8B8F99",
"-. c #8B939C",
";. c #8F9293",
":. c #92959A",
">. c #949696",
",. c #AA9197",
"<. c #9397A1",
"1. c #9698A1",
"2. c #9C9DA5",
"3. c #95A2AC",
"4. c #97A6B0",
"5. c #98A6B1",
"6. c #9AA9B3",
"7. c #9BAEB8",
"8. c #9EB1BB",
"9. c #BAA3A4",
"0. c #A2B4BE",
"q. c #A8B4BC",
"w. c #B2B6B8",
"e. c #C6A7A3",
"r. c #AEBEC6",
"t. c #B6C4CC",
"y. c #B9C7CF",
"u. c #BBC9D1",
"i. c #C4C3C4",
"p. c #C5C8C8",
"a. c #CFD3D8",
"s. c #D3D3D3",
"d. c #EED7D7",
"f. c #F5D6D6",
"g. c #D5DDE1",
"h. c #E7DFE0",
"j. c #EAEFF1",
"k. c #EDF1F3",
"l. c #F3F5F5",
"z. c #F2F7F9",
/* pixels */
"                                . . . X X X                     ",
"                                ; ; ; = + X                     ",
"                            . ; r J K y & .                     ",
"                            . ; g ^ I u ; .                     ",
"                . . . . . . . : B V i *                         ",
"                4 7 5 5 5 5 5 z F D w %                         ",
"            . 4 C @.@.@.@.@.@.#.$.G F v 1 .                     ",
"            . 7 @.0.8.8.7.8.8.3.-.*.*.G w <                     ",
"            . 7 @.8.8.7.7.7.7.6.3.3.4.-.G v 1 .                 ",
"            . 0 -.u.y.t.t.t.t.t.t.r.0.5.<.S 3 .                 ",
"            . j w.l.z.k.j.j.k.k.j.g.r.6.6.X.4 .                 ",
"            . q ;.p.p.i.i.i.i.s.l.j.t.7.8.@.7 .                 ",
"            . $ 9 l l l l w w A s.j.t.7.8.@.7 .                 ",
"            O $ q 7 @ @ 0 w w D s.l.t.6.6.X.5 .                 ",
"            . q >.>.9 7 ;.p.i.s.l.k.t.5.<.D 3 .                 ",
"            . w 9.e.h h e.f.f.d.h.a.q.-.G x % X                 ",
"            . , ! | T T (  . .} ,.2.:.G j % o .                 ",
"            . ; f T | R / E E Q ) ] [ N : . . X                 ",
"            O 1 M [ { ' ] _ _ ) Q ^ ^ g ; .                     ",
"            . 3 D =.=.*.*.=.-.+.~ ^ ^ g ; o                     ",
"            . 8 X.6.6.4.5.6.5.1.+.] [ N 1 & d Y                 ",
"            O 8 X.1.#.@.@.@.@.#.$.%.$.Z 2 - H Y                 ",
"            . 3 F X.z 7 7 7 8 k D %.%.Z 2 * H Y U U             ",
"            . 2 c m q < X O & 6 v F O.S 3 - H Y U U             ",
"              @ % q m c % & t a 6 j F S 3 - H Y Y U             ",
"                . < n v < & d d & < c c < & s L L P             ",
"                  # 1 < @ + >     o < < o + > e e               ",
"                    . . X .         . . X .                     ",
"                      . .             . .                       ",
"                                                                ",
"                                                                ",
"                                                                "
};
