/* XPM */
static char *_82895f0a8bd4889e9c87f5801df6e68MgSf4tJTy7qUV2Fu[] = {
/* columns rows colors chars-per-pixel */
"32 32 183 2 ",
"   c #514047",
".  c #503E46",
"X  c #4D3B43",
"o  c #503F46",
"O  c #5C4C52",
"+  c #716369",
"@  c #4F3E45",
"#  c #4E3D44",
"$  c #72656A",
"%  c #B7B0B3",
"&  c #4E3C44",
"*  c #4B3940",
"=  c #7D7075",
"-  c #DDD9DB",
";  c #DDDADB",
":  c #7F7277",
">  c #4C3B42",
",  c #513F46",
"<  c #4D3C43",
"1  c #4A383F",
"2  c #7C6F74",
"3  c #DCD8DA",
"4  c #7E7177",
"5  c #4C3A42",
"6  c #5A4A50",
"7  c #6F6167",
"8  c #9A9094",
"9  c #D3D0D1",
"0  c #C9C6C7",
"q  c #7E7579",
"w  c #54464C",
"e  c #514147",
"r  c #513F47",
"t  c #54444A",
"y  c #594B51",
"u  c #53434A",
"i  c #503E45",
"p  c #4E3C43",
"a  c #72646A",
"s  c #B8B0B3",
"d  c #D4D1D3",
"f  c #C4C3C4",
"g  c #A7A6A6",
"h  c #807D7E",
"j  c #655E61",
"k  c #57494F",
"l  c #696265",
"z  c #584A50",
"x  c #5B4F54",
"c  c #57494E",
"v  c #786B70",
"b  c #C9C5C7",
"n  c #DFDFDF",
"m  c #B6B7B6",
"M  c gray60",
"N  c #8B8C8B",
"B  c #777375",
"V  c #5D5055",
"C  c #534349",
"Z  c #584B50",
"A  c #686264",
"S  c #6B6668",
"D  c #61565B",
"F  c #56484E",
"G  c #706D6E",
"H  c #676063",
"J  c #6B5E63",
"K  c #A39EA0",
"L  c #B8B9B8",
"P  c #AAAAAA",
"I  c #A0A1A0",
"U  c #9D9E9E",
"Y  c #888486",
"T  c #63565B",
"R  c #584A4F",
"E  c #686164",
"W  c #524249",
"Q  c #686063",
"!  c #716D6F",
"~  c #645D61",
"^  c #4C4148",
"/  c #594F56",
"(  c #8B888A",
")  c #A5A6A5",
"_  c #A5A5A5",
"`  c gray64",
"'  c #9FA09F",
"]  c #858284",
"[  c #574D54",
"{  c #645E62",
"}  c #696365",
"|  c #4F3D45",
" . c #645E61",
".. c #4D4149",
"X. c #302834",
"o. c #433E49",
"O. c #858487",
"+. c gray66",
"@. c #A7A7A7",
"#. c gray62",
"$. c #8F8F8E",
"%. c #6D6B6E",
"&. c #3B3641",
"*. c #312835",
"=. c #4D4249",
"-. c #5A4C51",
";. c #54444B",
":. c #302734",
">. c #524047",
",. c #41333C",
"<. c #221B2A",
"1. c #2E2B3A",
"2. c #66656C",
"3. c #8B8A8D",
"4. c #979797",
"5. c #8E8E8E",
"6. c #706F72",
"7. c #4C4A52",
"8. c #252331",
"9. c #41333D",
"0. c #40323C",
"q. c #211A2A",
"w. c #231C2B",
"e. c #524147",
"r. c #42343E",
"t. c #241D2C",
"y. c #1C192A",
"u. c #4E4C55",
"i. c #757477",
"p. c #727174",
"a. c #45434C",
"s. c #262331",
"d. c #191627",
"f. c #231D2C",
"g. c #42343D",
"h. c #524148",
"j. c #473841",
"k. c #312734",
"l. c #1F1929",
"z. c #161122",
"x. c #272432",
"c. c #4E4D54",
"v. c #4F4D54",
"b. c #272433",
"n. c #171223",
"m. c #201929",
"M. c #4E3E45",
"N. c #483942",
"B. c #372C37",
"V. c #1A1727",
"C. c #272533",
"Z. c #1A1728",
"A. c #372C38",
"S. c #483941",
"D. c #534248",
"F. c #211A29",
"G. c #41343D",
"H. c #3F313A",
"J. c #5D4D53",
"K. c #73656B",
"L. c #4F3D44",
"P. c #74666B",
"I. c #B9B2B5",
"U. c #534249",
"Y. c #58494F",
"T. c #686163",
"R. c #4C4149",
"E. c #322834",
"W. c #201A29",
"Q. c #282533",
"!. c #171324",
"~. c #201A2A",
"^. c #4E3E46",
"/. c #382C38",
"(. c #1B1728",
"). c #1C1828",
"_. c #382D38",
"`. c #544249",
"'. c #453640",
"]. c #261F2E",
"[. c #161224",
"{. c #151122",
"}. c white",
/* pixels */
"          . X X .                             . X X .           ",
"      o o O + + O o o                     o o O + + O o o       ",
"      @ # $ % % $ # @                     @ # $ % % $ # @       ",
"      & * = - ; : > #           , ,       & * = - ; : > #       ",
"      < 1 2 3 - 4 5 #           o o       < 1 2 3 - 4 5 #       ",
"o o o 6 7 8 9 0 q w e r o o r t y y u i . 6 7 8 9 0 q w e r o o ",
"o # p a s d f g h j k o . . o y l l z p < a s d f g h j k o . o ",
"x c   v b n m M N B V C z Z C Z A S D F o v b n m M N B V C z x ",
"G H k J K L P I U Y T R E l y W R D S H k J K L P I U Y T R Q G ",
"! ~ ^ / ( ) _ ` ' ] [ ^ { } y i | z l { ^ / ( ) _ ` ' ] [ ^  .! ",
"V ..X.o.O.+.@.#.$.%.&.*.=.-.;.o o t -...:.o.O.+.@.#.$.%.&.*.=.V ",
">.,.<.1.2.3.4.5.6.7.8.<.9.>.>.    >.>.0.q.1.2.3.4.5.6.7.8.w.9.>.",
"e.r.t.y.1.u.i.p.a.s.d.f.r.>.>.    >.>.g.w.y.1.u.i.p.a.s.d.t.r.e.",
"h.j.k.l.z.x.c.v.b.n.m.k.j.h.>.    >.h.j.k.l.z.x.c.v.b.n.m.k.j.h.",
"  M.N.B.l.V.b.C.Z.m.A.S.M.            M.S.B.l.V.b.C.Z.m.A.N.M.  ",
"  h.D.S.k.w.F.F.w.k.S.D.h.            h.D.S.k.w.F.F.w.k.S.D.h.  ",
"    h.M.j.G.H.H.G.j.M.h.                h.M.j.G.H.H.G.j.M.h.    ",
"          J.K.K.J.                            J.K.K.J.          ",
"      @ L.P.I.I.P.L.@                     @ L.P.I.I.P.L.@       ",
"      & * = - ; : > #       , ,           & * = - ; : > #       ",
"      < 1 2 3 - 4 5 #       o o           < 1 2 3 - 4 5 #       ",
"o o o 6 7 8 9 0 q w e o o u y y t r o o o 6 7 8 9 0 q w e r o o ",
"o # p a s d f g h j k i | z l l y o . # p a s d f g h j k o . o ",
"x c   v b n m M N B V U.Y.D S A Z C Z c   v b n m M N B V C z x ",
"G H k J K L P I U Y T R E S D R W y l T.k J K L P I U Y T R Q G ",
"! ~ ^ / ( ) _ ` ' ] [ ^ { l z | i y } { ^ / ( ) _ ` ' ] [ ^  .! ",
"V ..X.o.O.+.@.#.$.%.&.*.=.-.t o o ;.-.R.:.o.O.+.@.#.$.%.&.*.=.V ",
">.,.<.1.2.3.4.5.6.7.8.<.9.>.>.    >.>.0.q.1.2.3.4.5.6.7.8.w.9.>.",
"e.r.t.y.1.u.i.p.a.s.d.f.r.>.>.    >.>.g.w.y.1.u.i.p.a.s.d.t.r.e.",
"h.j.E.W.n.x.c.v.Q.!.~.k.j.h.>.    >.h.j.k.W.n.x.c.v.Q.!.~.E.j.h.",
"  ^.N./.W.(.Q.Q.).q._.N.M.            M.N./.W.(.Q.Q.).q._.N.^.  ",
"  h.`.'.].[.{.{.[.].'.`.h.            h.`.'.].[.{.{.[.].'.`.h.  "
};
