/* XPM */
static char *e16a8972aa00425ba15b4373e4b947ceZ3SQQTWYefWj9LyB[] = {
/* columns rows colors chars-per-pixel */
"32 32 27 1 ",
"  c #020202",
". c #070707",
"X c gray4",
"o c gray21",
"O c #3F3F3F",
"+ c #412320",
"@ c #353E50",
"# c gray26",
"$ c gray27",
"% c #494949",
"& c gray30",
"* c gray35",
"= c #5A5A5A",
"- c #434F65",
"; c #646464",
": c gray42",
"> c #777777",
", c gray47",
"< c #5A6988",
"1 c #6F7F9F",
"2 c #838383",
"3 c #868686",
"4 c gray54",
"5 c #8D8D8D",
"6 c #8895AF",
"7 c gray64",
"8 c #A6B0C4",
/* pixels */
"---------@@@@@@@---------@@@@@@@",
"---------1111111---------1111111",
"---------1<<<-<1---------1<<<-<1",
"@@@@-@@@@@@@-@@@@@@@-@@@@@@@-@@@",
"1111-1111111-6666661-1111111-111",
"<<<1-1<<<<<1-6666661-1<<<<<1-1<<",
"<<<<--<66666-666666-66666<<--<<<",
"-@@@@@@66666-888888-66666-------",
"-66666-66666-111111-66666-66666-",
"-66666-88888-111111-88888-66666-",
"-66666-11111-111111-11111-66666-",
"-88888-11111-111111-11111-88888-",
"-11111-11111        11111-11111-",
"-11111  .XXXX     .XXX..  11111-",
"-111117777777777777777777711111-",
"------44322244555443434455------",
"-88888oooooo$$$$$$$$$$$$$$88888-",
"-11111ooOOOO$$$$$$$;;;;;=$11111-",
"-11111oo$$$$$$$$$$$,,,,,;$11111-",
"-11111O#$$$$$$$$$$$>,,,,;$11111-",
"-11111O$$$$$$$$$$$$>>,,,;$11111-",
"------O$$$$$:::::&$>,,,,;$------",
"-88888#$$$$$:::::&$>,,,,;$88888-",
"-11111O$$$$$:::::&$>,,,,;$11111-",
"-11111#%$%$$:::::&$,,,,,;$11111-",
"-11111====$$:::::&$,,,,,:$11111-",
"-11111====$$:::::%$,,,,,;$11111-",
"------**==$$:::::%$,,,,,;$------",
"-88888**==$$:::::%$,,,,,;$88888-",
"-11111++++++++++++++++++++11111-",
"-11111++++++++++++++++++++11111-",
"-11111++++++++++++++++++++11111-"
};
